<svg height="512" viewBox="0 0 64 64" width="512" xmlns="http://www.w3.org/2000/svg" xmlns:xlink="http://www.w3.org/1999/xlink"><linearGradient id="New_Gradient_Swatch" gradientUnits="userSpaceOnUse" x1="32" x2="32" y1="63.179" y2="-.235"><stop offset="0" stop-color="#e93e3a"/><stop offset=".35" stop-color="#ed683c"/><stop offset=".7" stop-color="#f3903f"/><stop offset="1" stop-color="#fdc70c"/></linearGradient><linearGradient id="New_Gradient_Swatch-2" x1="30" x2="30" xlink:href="#New_Gradient_Swatch" y1="63.179" y2="-.235"/><linearGradient id="New_Gradient_Swatch-3" x1="39" x2="39" xlink:href="#New_Gradient_Swatch" y1="63.179" y2="-.235"/><linearGradient id="New_Gradient_Swatch-4" x1="36" x2="36" xlink:href="#New_Gradient_Swatch" y1="63.179" y2="-.235"/><linearGradient id="New_Gradient_Swatch-5" x1="29" x2="29" xlink:href="#New_Gradient_Swatch" y1="63.179" y2="-.235"/><linearGradient id="New_Gradient_Swatch-6" x1="46" x2="46" xlink:href="#New_Gradient_Swatch" y1="63.179" y2="-.235"/><linearGradient id="New_Gradient_Swatch-17" x1="20" x2="20" xlink:href="#New_Gradient_Swatch" y1="63.179" y2="-.235"/><g id="Bill-7" data-name="Bill"><path d="m53.316 2.051a1 1 0 0 0 -1.116.349l-2.2 2.933-2.2-2.933a1.036 1.036 0 0 0 -1.6 0l-2.2 2.933-2.2-2.933a1.036 1.036 0 0 0 -1.6 0l-2.2 2.933-2.2-2.933a1.036 1.036 0 0 0 -1.6 0l-2.2 2.933-2.2-2.933a1.036 1.036 0 0 0 -1.6 0l-2.2 2.933-2.2-2.933a1.036 1.036 0 0 0 -1.6 0l-2.2 2.933-2.2-2.933a1.036 1.036 0 0 0 -1.6 0l-2.2 2.933-2.2-2.933a1 1 0 0 0 -1.8.6v58a1 1 0 0 0 1.8.6l2.2-2.933 2.2 2.933a1.036 1.036 0 0 0 1.6 0l2.2-2.933 2.2 2.933a1.036 1.036 0 0 0 1.6 0l2.2-2.933 2.2 2.933a1.036 1.036 0 0 0 1.6 0l2.2-2.933 2.2 2.933a1.036 1.036 0 0 0 1.6 0l2.2-2.933 2.2 2.933a1.036 1.036 0 0 0 1.6 0l2.2-2.933 2.2 2.933a1.036 1.036 0 0 0 1.6 0l2.2-2.933 2.2 2.933a1 1 0 0 0 .8.4 1.019 1.019 0 0 0 .316-.051 1 1 0 0 0 .684-.949v-58a1 1 0 0 0 -.684-.949zm-1.316 55.949-1.2-1.6a1.036 1.036 0 0 0 -1.6 0l-2.2 2.933-2.2-2.933a1 1 0 0 0 -1.6 0l-2.2 2.933-2.2-2.933a1.036 1.036 0 0 0 -1.6 0l-2.2 2.933-2.2-2.933a1.036 1.036 0 0 0 -1.6 0l-2.2 2.933-2.2-2.933a1.036 1.036 0 0 0 -1.6 0l-2.2 2.933-2.2-2.933a1.036 1.036 0 0 0 -1.6 0l-2.2 2.933-2.2-2.933a1.036 1.036 0 0 0 -1.6 0l-1.2 1.6v-52l1.2 1.6a1.036 1.036 0 0 0 1.6 0l2.2-2.933 2.2 2.933a1.036 1.036 0 0 0 1.6 0l2.2-2.933 2.2 2.933a1.036 1.036 0 0 0 1.6 0l2.2-2.933 2.2 2.933a1.036 1.036 0 0 0 1.6 0l2.2-2.933 2.2 2.933a1.036 1.036 0 0 0 1.6 0l2.2-2.933 2.2 2.933a1.036 1.036 0 0 0 1.6 0l2.2-2.933 2.2 2.933a1.036 1.036 0 0 0 1.6 0l1.2-1.6z" fill="url(#New_Gradient_Swatch)"/><path d="m28 18h4v2h-4z" fill="url(#New_Gradient_Swatch-2)"/><path d="m34 18h10v2h-10z" fill="url(#New_Gradient_Swatch-3)"/><path d="m28 22h16v2h-16z" fill="url(#New_Gradient_Swatch-4)"/><path d="m16 30h26v2h-26z" fill="url(#New_Gradient_Swatch-5)"/><path d="m44 30h4v2h-4z" fill="url(#New_Gradient_Swatch-6)"/><path d="m16 34h26v2h-26z" fill="url(#New_Gradient_Swatch-5)"/><path d="m44 34h4v2h-4z" fill="url(#New_Gradient_Swatch-6)"/><path d="m16 38h26v2h-26z" fill="url(#New_Gradient_Swatch-5)"/><path d="m44 38h4v2h-4z" fill="url(#New_Gradient_Swatch-6)"/><path d="m16 42h26v2h-26z" fill="url(#New_Gradient_Swatch-5)"/><path d="m44 42h4v2h-4z" fill="url(#New_Gradient_Swatch-6)"/><path d="m16 46h26v2h-26z" fill="url(#New_Gradient_Swatch-5)"/><path d="m44 46h4v2h-4z" fill="url(#New_Gradient_Swatch-6)"/><path d="m16 50h26v2h-26z" fill="url(#New_Gradient_Swatch-5)"/><path d="m44 50h4v2h-4z" fill="url(#New_Gradient_Swatch-6)"/><path d="m21 22h-2a1 1 0 0 1 -1-1h-2a3 3 0 0 0 3 3v2h2v-2a3 3 0 0 0 0-6h-2a1 1 0 0 1 0-2h2a1 1 0 0 1 1 1h2a3 3 0 0 0 -3-3v-2h-2v2a3 3 0 0 0 0 6h2a1 1 0 0 1 0 2z" fill="url(#New_Gradient_Swatch-17)"/></g></svg>