<svg id="flat" height="512" viewBox="0 0 512 512" width="512" xmlns="http://www.w3.org/2000/svg"><path d="m328 192h64v264h-64z" fill="#eda600"/><path d="m392 112h64v344h-64z" fill="#f6bb00"/><path d="m264 272h64v184h-64z" fill="#de9400"/><path d="m200 352h64v104h-64z" fill="#cf8300"/><path d="m184 448h304v16h-304z" fill="#fcd453"/><path d="m171.53125 271.7832-11.31445-11.31445 226.126-226.126a8.00235 8.00235 0 0 1 5.6572-2.34275h72v16h-68.68652z" fill="#eda600"/><rect fill="#548aff" height="232" rx="32" width="176" x="24" y="256"/><path d="m56 288h112v40h-112z" fill="#84d8e8"/><path d="m64 360h48v96h-48z" fill="#718799"/><path d="m64 400h48v16h-48z" fill="#556c80"/><path d="m112 360h48v96h-48z" fill="#f6bb00"/><g fill="#fcd453"><path d="m344 480h32v16h-32z"/><path d="m280 480h32v16h-32z"/><path d="m216 480h32v16h-32z"/><path d="m408 480h32v16h-32z"/></g><path d="m216 184h32v32h-32z" fill="#eda600"/><path d="m248 224h-32a8.00039 8.00039 0 0 1 -8-8v-32a8.00039 8.00039 0 0 1 8-8h32a8.00039 8.00039 0 0 1 8 8v32a8.00039 8.00039 0 0 1 -8 8zm-24-16h16v-16h-16z" fill="#fcd453"/><path d="m296 104h32v32h-32z" fill="#eda600"/><path d="m328 144h-32a8.00039 8.00039 0 0 1 -8-8v-32a8.00039 8.00039 0 0 1 8-8h32a8.00039 8.00039 0 0 1 8 8v32a8.00039 8.00039 0 0 1 -8 8zm-24-16h16v-16h-16z" fill="#fcd453"/><path d="m376 24h32v32h-32z" fill="#eda600"/><path d="m408 64h-32a8.00039 8.00039 0 0 1 -8-8v-32a8.00039 8.00039 0 0 1 8-8h32a8.00039 8.00039 0 0 1 8 8v32a8.00039 8.00039 0 0 1 -8 8zm-24-16h16v-16h-16z" fill="#fcd453"/><path d="m480 32h16v16h-16z" fill="#eda600"/></svg>