<?xml version="1.0" encoding="iso-8859-1"?>
<!-- Generator: Adobe Illustrator 19.0.0, SVG Export Plug-In . SVG Version: 6.00 Build 0)  -->
<svg version="1.1" id="Capa_1" xmlns="http://www.w3.org/2000/svg" xmlns:xlink="http://www.w3.org/1999/xlink" x="0px" y="0px"
	 viewBox="0 0 512 512" style="enable-background:new 0 0 512 512;" xml:space="preserve">
<g>
	<path style="fill:#53433F;" d="M451,151c-8.291,0-15-6.709-15-15V87.422c0-23.013-9.331-45.542-25.605-61.816
		c-5.859-5.859-5.859-15.352,0-21.211s15.352-5.859,21.211,0C453.461,26.25,466,56.514,466,87.422V136
		C466,144.291,459.291,151,451,151z"/>
	<path style="fill:#53433F;" d="M361,391c-8.291,0-15-6.709-15-15s6.709-15,15-15c41.353,0,75-33.647,75-75v-60
		c0-8.291,6.709-15,15-15s15,6.709,15,15v60C466,343.891,418.891,391,361,391z"/>
</g>
<path style="fill:#FDBF00;" d="M331,0H91C66.099,0,46,20.099,46,45v422c0,8.399,6.599,15,15,15h300c8.401,0,15-6.601,15-15V45
	C376,20.099,355.901,0,331,0z"/>
<path style="fill:#FF9F00;" d="M376,45v422c0,8.399-6.599,15-15,15H211V0h120C355.901,0,376,20.099,376,45z"/>
<g>
	<circle style="fill:#68544F;" cx="121" cy="196" r="15"/>
	<path style="fill:#68544F;" d="M391,452H31c-8.401,0-15,6.599-15,15v30c0,8.399,6.599,15,15,15h360c8.401,0,15-6.601,15-15v-30
		C406,458.599,399.401,452,391,452z"/>
</g>
<path style="fill:#EDE9E8;" d="M301,60H121c-8.401,0-15,6.599-15,15v61c0,8.399,6.599,15,15,15h180c8.401,0,15-6.601,15-15V75
	C316,66.599,309.401,60,301,60z"/>
<path style="fill:#FF9F00;" d="M481,241h-60c-8.291,0-15-6.709-15-15v-90c0-8.291,6.709-15,15-15h60c8.291,0,15,6.709,15,15v90
	C496,234.291,489.291,241,481,241z"/>
<path style="fill:#DFD7D5;" d="M301,151h-90V60h90c8.401,0,15,6.599,15,15v61C316,144.399,309.401,151,301,151z"/>
<path style="fill:#53433F;" d="M406,467v30c0,8.399-6.599,15-15,15H211v-60h180C399.401,452,406,458.599,406,467z"/>
<path style="fill:#68544F;" d="M277.599,272.5l-46.5-23.101l23.401-46.8c3.3-6.599,1.199-14.399-4.801-18.9
	c-5.999-4.199-14.099-3.6-19.199,1.8l-90,90c-3.6,3.301-5.101,8.101-4.2,12.9c0.601,4.801,3.6,9.001,8.101,11.102l46.5,23.099
	L167.5,369.4c-3.3,6.601-1.199,14.401,4.801,18.9c5.999,4.2,14.099,3.6,19.199-1.8L211,367l70.499-70.501
	c3.6-3.3,5.101-8.101,4.2-12.9C285.099,278.8,282.1,274.6,277.599,272.5z"/>
<path style="fill:#53433F;" d="M285.7,283.599c0.901,4.799-0.601,9.6-4.2,12.9L211,367V205l19.501-19.501
	c5.099-5.4,13.2-5.999,19.199-1.8c6,4.501,8.101,12.301,4.801,18.9l-23.401,46.8l46.5,23.101
	C282.1,274.6,285.099,278.8,285.7,283.599z"/>
<g>
</g>
<g>
</g>
<g>
</g>
<g>
</g>
<g>
</g>
<g>
</g>
<g>
</g>
<g>
</g>
<g>
</g>
<g>
</g>
<g>
</g>
<g>
</g>
<g>
</g>
<g>
</g>
<g>
</g>
</svg>
